# File created by Blade
# Date/Time:  Wed Apr 08 17:16:55 2015
#---------------------------------------------------------
:version 1.10
:name HOM
:units
  mass 1.0
  length 1.000000
  angle deg
:documentation
     Acclaim Skeleton File
:root
   axis xyz
   order TX TY TZ RX RY RZ
   position 0.000000 0.000000 0.000000
   orientation 0 0 0
:bonedata
   begin
      id 1
      name Spine_dum
      direction 0.000000 1.000000 0.000000
      length 5.893853
      axis 0.0 0.0 0.0 xyz
   end
   begin
      id 2
      name LeftUpLeg_dum
      direction 1.000000 0.000000 0.000000
      length 3.697939
      axis 0.0 0.0 0.0 xyz
   end
   begin
      id 3
      name RightUpLeg_dum
      direction -1.000000 0.000000 0.000000
      length 3.697939
      axis 0.0 0.0 0.0 xyz
   end
   begin
      id 4
      name Spine
      direction 0.000000 1.000000 0.000000
      length 0.000000
      axis 0.0 0.0 0.0 xyz
      dof rx ry rz
   end
   begin
      id 5
      name Spine_dum1
      direction 0.000000 1.000000 0.000000
      length 16.447146
      axis 0.0 0.0 0.0 xyz
   end
   begin
      id 6
      name Spine_dum2
      direction 0.000000 1.000000 0.000000
      length 10.900383
      axis 0.0 0.0 0.0 xyz
   end
   begin
      id 7
      name Spine_dum3
      direction 0.000000 1.000000 0.000000
      length 10.900383
      axis 0.0 0.0 0.0 xyz
   end
   begin
      id 8
      name Head
      direction 0.000000 1.000000 0.000000
      length 4.527550
      axis 0.0 0.0 0.0 xyz
      dof rx ry rz
   end
   begin
      id 9
      name LeftShoulder
      direction 1.000000 0.000000 0.000000
      length 8.219464
      axis 0.0 0.0 -90.0 xyz
      dof rx ry rz
   end
   begin
      id 10
      name LeftArm
      direction 1.000000 0.000000 0.000000
      length 11.094937
      axis 0.0 0.0 -90.0 xyz
      dof rx ry rz
   end
   begin
      id 11
      name LeftForeArm
      direction 1.000000 0.000000 0.000000
      length 9.103875
      axis 0.0 0.0 -90.0 xyz
      dof ry rz rx
   end
   begin
      id 12
      name LeftHand
      direction 0.000000 0.000000 0.000000
      length 0.000000
      axis 0.0 0.0 -90.0 xyz
      dof rx ry rz
   end
   begin
      id 13
      name LeftHand_dum1
      direction 0.000000 0.000000 0.000000
      length 0.000000
      axis 0.0 0.0 -90.0 xyz
   end
   begin
      id 14
      name LeftHand_dum2
      direction 1.000000 0.000000 0.000000
      length 3.937000
      axis 0.0 0.0 -90.0 xyz
   end
   begin
      id 15
      name LeftHandThumb1
      direction 0.000000 0.000000 1.000000
      length 3.937000
      axis 0.0 0.0 -90.0 xyz
      dof rx rz ry
   end
   begin
      id 16
      name RightShoulder
      direction -1.000000 0.000000 0.000000
      length 8.219464
      axis 0.0 0.0 90.0 xyz
      dof rx ry rz
   end
   begin
      id 17
      name RightArm
      direction -1.000000 0.000000 0.000000
      length 11.094937
      axis 0.0 0.0 90.0 xyz
      dof rx ry rz
   end
   begin
      id 18
      name RightForeArm
      direction -1.000000 0.000000 0.000000
      length 9.103875
      axis 0.0 0.0 90.0 xyz
      dof ry rz rx
   end
   begin
      id 19
      name RightHand
      direction 0.000000 0.000000 0.000000
      length 0.000000
      axis 0.0 0.0 90.0 xyz
      dof rx ry rz
   end
   begin
      id 20
      name RightHand_dum1
      direction 0.000000 0.000000 0.000000
      length 0.000000
      axis 0.0 0.0 90.0 xyz
   end
   begin
      id 21
      name RightHand_dum2
      direction -1.000000 0.000000 0.000000
      length 3.937000
      axis 0.0 0.0 90.0 xyz
   end
   begin
      id 22
      name RightHandThumb1
      direction 0.000000 0.000000 1.000000
      length 3.937000
      axis 0.0 0.0 90.0 xyz
      dof rx rz ry
   end
   begin
      id 23
      name LeftUpLeg
      direction 0.000000 -1.000000 0.000000
      length 16.181467
      axis 0.0 0.0 0.0 xyz
      dof rx ry rz
   end
   begin
      id 24
      name LeftLeg
      direction 0.000000 -1.000000 0.000000
      length 16.501392
      axis 0.0 0.0 0.0 xyz
      dof rx ry rz
   end
   begin
      id 25
      name LeftFoot
      direction 0.000000 -0.258819 0.965926
      length 6.408245
      axis 15.0 0.0 0.0 xyz
      dof rx ry rz
   end
   begin
      id 26
      name LeftToeBase
      direction 0.000000 0.000000 1.000000
      length 2.952750
      axis 0.0 0.0 0.0 xyz
      dof rx ry rz
   end
   begin
      id 27
      name RightUpLeg
      direction 0.000000 -1.000000 0.000000
      length 16.181467
      axis 0.0 0.0 0.0 xyz
      dof rx ry rz
   end
   begin
      id 28
      name RightLeg
      direction 0.000000 -1.000000 0.000000
      length 16.501392
      axis 0.0 0.0 0.0 xyz
      dof rx ry rz
   end
   begin
      id 29
      name RightFoot
      direction 0.000000 -0.258819 0.965926
      length 6.408245
      axis 15.0 0.0 0.0 xyz
      dof rx ry rz
   end
   begin
      id 30
      name RightToeBase
      direction 0.000000 0.000000 1.000000
      length 2.952750
      axis 0.0 0.0 0.0 xyz
      dof rx ry rz
   end
:hierarchy
   begin
      root Spine_dum LeftUpLeg_dum RightUpLeg_dum
      Spine_dum Spine
      LeftUpLeg_dum LeftUpLeg
      RightUpLeg_dum RightUpLeg
      Spine Spine_dum1 Spine_dum2 Spine_dum3
      Spine_dum1 Head
      Spine_dum2 LeftShoulder
      Spine_dum3 RightShoulder
      LeftShoulder LeftArm
      LeftArm LeftForeArm
      LeftForeArm LeftHand
      LeftHand LeftHand_dum1 LeftHand_dum2
      LeftHand_dum1 LeftHandThumb1
      RightShoulder RightArm
      RightArm RightForeArm
      RightForeArm RightHand
      RightHand RightHand_dum1 RightHand_dum2
      RightHand_dum1 RightHandThumb1
      LeftUpLeg LeftLeg
      LeftLeg LeftFoot
      LeftFoot LeftToeBase
      RightUpLeg RightLeg
      RightLeg RightFoot
      RightFoot RightToeBase
   end

# File created by Blade
# Date/Time:  Wed Apr 08 17:17:01 2015
# Frame Rate: 120.000 fps
#------------------------------------------------------
:FULLY-SPECIFIED
:DEGREES
1
root 4.458156 35.870185 -0.641880 -153.008070 -85.809303 146.337210
Spine 11.599828 2.073776 -4.545535
Head -2.671741 9.993595 2.816143
LeftShoulder -6.035369 9.403782 29.903662
LeftArm 11.829502 -36.291538 -35.603196
LeftForeArm 26.036046 -0.000000 2.762454
LeftHand -11.851794 0.000000 -14.324796
LeftHandThumb1 -26.253704 0.000000 33.147579
RightShoulder -23.691150 -39.437648 -11.675977
RightArm 55.513891 47.995335 57.787538
RightForeArm 2.439361 0.000000 -2.435750
RightHand -2.151204 -0.000000 4.548614
RightHandThumb1 -24.326973 -0.000000 -32.862282
LeftUpLeg 14.124496 15.242978 7.565028
LeftLeg 3.943576 -0.000000 -0.000000
LeftFoot -10.431655 5.157225 -17.895572
LeftToeBase 5.421140 -0.000000 -0.000000
RightUpLeg 13.721683 -8.316864 -12.627279
RightLeg 3.235522 -0.000000 -0.000000
RightFoot -11.702019 -0.069581 19.997814
RightToeBase 10.233932 -0.000000 -0.000000
2
root 4.456990 35.870209 -0.650619 -153.315294 -85.790241 146.651752
Spine 11.604119 2.078930 -4.550174
Head -2.625034 9.967198 2.788970
LeftShoulder -6.044097 9.391718 29.892341
LeftArm 11.841552 -36.254207 -35.602862
LeftForeArm 26.093521 -0.000000 2.733873
LeftHand -11.807701 0.000000 -14.419968
LeftHandThumb1 -26.253704 0.000000 33.147579
RightShoulder -23.685919 -39.424648 -11.683880
RightArm 55.521847 48.016757 57.770778
RightForeArm 2.443936 -0.000000 -2.477966
RightHand -2.100811 -0.000000 4.605696
RightHandThumb1 -24.326973 -0.000000 -32.862282
LeftUpLeg 14.122573 15.250113 7.586698
LeftLeg 3.948196 -0.000000 -0.000000
LeftFoot -10.428444 5.178291 -17.911927
LeftToeBase 5.398406 -0.000000 -0.000000
RightUpLeg 13.699403 -8.292568 -12.598615
RightLeg 3.256835 -0.000000 -0.000000
RightFoot -11.719406 -0.077056 19.973390
RightToeBase 10.242025 -0.000000 -0.000000
3
root 4.456016 35.870328 -0.658410 -153.668970 -85.765568 147.011263
Spine 11.604342 2.082228 -4.547485
Head -2.567162 9.928655 2.759769
LeftShoulder -6.036396 9.380231 29.879638
LeftArm 11.835788 -36.233864 -35.606934
LeftForeArm 26.093040 -0.000000 2.703270
LeftHand -11.890140 -0.000000 -14.415278
LeftHandThumb1 -26.253704 0.000000 33.147579
RightShoulder -23.654507 -39.388236 -11.724079
RightArm 55.501588 48.032013 57.753714
RightForeArm 2.442977 -0.000000 -2.502367
RightHand -2.072989 0.000000 4.592135
RightHandThumb1 -24.326973 -0.000000 -32.862282
LeftUpLeg 14.117194 15.256385 7.605830
LeftLeg 3.965377 -0.000000 -0.000000
LeftFoot -10.439684 5.196139 -17.920655
LeftToeBase 5.419131 -0.000000 -0.000000
RightUpLeg 13.667934 -8.300719 -12.580006
RightLeg 3.294468 -0.000000 -0.000000
RightFoot -11.727362 -0.042749 19.947970
RightToeBase 10.228433 -0.000000 -0.000000
4
root 4.455153 35.870511 -0.665982 -153.909091 -85.750244 147.257137
Spine 11.606882 2.080869 -4.548617
Head -2.505680 9.874597 2.747060
LeftShoulder -6.038630 9.392074 29.869259
LeftArm 11.870676 -36.215617 -35.637109
LeftForeArm 26.058476 -0.000000 2.665373
LeftHand -11.905607 -0.000000 -14.387702
LeftHandThumb1 -26.253704 0.000000 33.147579
RightShoulder -23.643408 -39.380948 -11.733552
RightArm 55.534144 48.081502 57.789485
RightForeArm 2.417031 -0.000000 -2.495971
RightHand -2.115111 -0.000000 4.606855
RightHandThumb1 -24.326973 -0.000000 -32.862282
LeftUpLeg 14.104321 15.275735 7.627012
LeftLeg 3.992771 -0.000000 -0.000000
LeftFoot -10.443335 5.190615 -17.950787
LeftToeBase 5.407668 -0.000000 -0.000000
RightUpLeg 13.637272 -8.285256 -12.561674
RightLeg 3.336979 -0.000000 -0.000000
RightFoot -11.743438 -0.014941 19.959297
RightToeBase 10.238084 -0.000000 -0.000000
5
root 4.453079 35.870323 -0.673105 -154.055481 -85.739146 147.405158
Spine 11.611702 2.071632 -4.552928
Head -2.450289 9.826727 2.732060
LeftShoulder -6.034273 9.387876 29.866549
LeftArm 11.894875 -36.236378 -35.666567
LeftForeArm 26.013669 0.000000 2.606146
LeftHand -11.942756 -0.000000 -14.476571
LeftHandThumb1 -26.253704 0.000000 33.147579
RightShoulder -23.619589 -39.353206 -11.765250
RightArm 55.542639 48.119636 57.820043
RightForeArm 2.375120 -0.000000 -2.513194
RightHand -2.098260 0.000000 4.584064
RightHandThumb1 -24.326973 -0.000000 -32.862282
LeftUpLeg 14.105509 15.270601 7.640799
LeftLeg 3.999368 -0.000000 -0.000000
LeftFoot -10.440644 5.202684 -17.953862
LeftToeBase 5.366112 -0.000000 -0.000000
RightUpLeg 13.621519 -8.299954 -12.551830
RightLeg 3.367706 -0.000000 -0.000000
RightFoot -11.756557 0.013974 19.943017
RightToeBase 10.233267 -0.000000 -0.000000
6
root 4.450535 35.870037 -0.681075 -154.215156 -85.730474 147.563287
Spine 11.618517 2.046385 -4.557616
Head -2.404297 9.781994 2.726393
LeftShoulder -6.016069 9.377873 29.868968
LeftArm 11.842902 -36.270531 -35.688670
LeftForeArm 26.056406 -0.000000 2.622731
LeftHand -11.895964 -0.000000 -14.436797
LeftHandThumb1 -26.253704 0.000000 33.147579
RightShoulder -23.603284 -39.343293 -11.795633
RightArm 55.562470 48.109876 57.816388
RightForeArm 2.427346 0.000000 -2.548246
RightHand -2.092224 -0.000000 4.541129
RightHandThumb1 -24.326973 -0.000000 -32.862282
LeftUpLeg 14.104234 15.279773 7.663817
LeftLeg 4.021864 -0.000000 -0.000000
LeftFoot -10.450085 5.193758 -17.986188
LeftToeBase 5.389967 -0.000000 -0.000000
RightUpLeg 13.616279 -8.288305 -12.534937
RightLeg 3.385048 -0.000000 -0.000000
RightFoot -11.778005 0.031233 19.964105
RightToeBase 10.249462 -0.000000 -0.000000
7
root 4.448022 35.869841 -0.687845 -154.342520 -85.727001 147.682393
Spine 11.639021 2.025198 -4.558595
Head -2.375066 9.742521 2.710864
LeftShoulder -5.996347 9.368932 29.880979
LeftArm 11.823441 -36.344182 -35.741489
LeftForeArm 26.032319 -0.000000 2.605181
LeftHand -11.891116 -0.000000 -14.481862
LeftHandThumb1 -26.253704 0.000000 33.147579
RightShoulder -23.589901 -39.337195 -11.815968
RightArm 55.560103 48.117411 57.800176
RightForeArm 2.450073 -0.000000 -2.573412
RightHand -2.101786 -0.000000 4.586394
RightHandThumb1 -24.326973 -0.000000 -32.862282
LeftUpLeg 14.111120 15.288166 7.683987
LeftLeg 4.035880 -0.000000 -0.000000
LeftFoot -10.451432 5.200592 -17.969246
LeftToeBase 5.396457 -0.000000 -0.000000
RightUpLeg 13.622102 -8.298767 -12.524938
RightLeg 3.396951 -0.000000 -0.000000
RightFoot -11.781965 0.053852 19.966344
RightToeBase 10.251249 -0.000000 -0.000000
8
root 4.445215 35.870036 -0.694583 -154.497645 -85.716510 147.829698
Spine 11.651705 2.006218 -4.559723
Head -2.327852 9.710238 2.696965
LeftShoulder -5.994565 9.370680 29.884427
LeftArm 11.845511 -36.391922 -35.800578
LeftForeArm 26.013079 -0.000000 2.577493
LeftHand -11.906491 -0.000000 -14.411173
LeftHandThumb1 -26.253704 0.000000 33.147579
RightShoulder -23.567730 -39.341416 -11.852226
RightArm 55.579680 48.122364 57.819015
RightForeArm 2.456451 0.000000 -2.600973
RightHand -2.090985 -0.000000 4.601114
RightHandThumb1 -24.326973 -0.000000 -32.862282
LeftUpLeg 14.126211 15.301448 7.704228
LeftLeg 4.039695 -0.000000 -0.000000
LeftFoot -10.444409 5.201238 -17.973738
LeftToeBase 5.385445 -0.000000 -0.000000
RightUpLeg 13.638818 -8.275096 -12.507577
RightLeg 3.382223 -0.000000 -0.000000
RightFoot -11.784560 0.038175 19.959470
RightToeBase 10.263082 -0.000000 -0.000000
9
root 4.441605 35.869743 -0.701416 -154.743842 -85.715718 148.061894
Spine 11.675178 1.999754 -4.543725
Head -2.287993 9.684224 2.676310
LeftShoulder -5.980507 9.377001 29.874539
LeftArm 11.875059 -36.447122 -35.840422
LeftForeArm 26.027421 -0.000000 2.528518
LeftHand -11.840967 -0.000000 -14.425439
LeftHandThumb1 -26.253704 0.000000 33.147579
RightShoulder -23.576554 -39.354392 -11.863287
RightArm 55.582446 48.111654 57.803283
RightForeArm 2.505211 -0.000000 -2.621194
RightHand -2.123111 -0.000000 4.587897
RightHandThumb1 -24.326973 -0.000000 -32.862282
LeftUpLeg 14.151325 15.314267 7.738867
LeftLeg 4.036455 -0.000000 -0.000000
LeftFoot -10.439498 5.201563 -17.962552
LeftToeBase 5.350915 -0.000000 -0.000000
RightUpLeg 13.668478 -8.283528 -12.491505
RightLeg 3.360833 -0.000000 -0.000000
RightFoot -11.771511 0.056546 19.960102
RightToeBase 10.236880 -0.000000 -0.000000
10
root 4.438496 35.870371 -0.707054 -154.990739 -85.714557 148.298576
Spine 11.691618 1.972109 -4.529616
Head -2.244763 9.667923 2.669046
LeftShoulder -5.988665 9.378394 29.862828
LeftArm 11.914943 -36.470700 -35.869447
LeftForeArm 26.050635 0.000000 2.458698
LeftHand -11.841478 -0.000000 -14.488478
LeftHandThumb1 -26.253704 0.000000 33.147579
RightShoulder -23.534178 -39.339617 -11.908299
RightArm 55.522624 48.098947 57.750273
RightForeArm 2.569779 -0.000000 -2.625861
RightHand -2.090543 -0.000000 4.612153
RightHandThumb1 -24.326973 -0.000000 -32.862282
LeftUpLeg 14.171451 15.321425 7.768366
LeftLeg 4.036492 -0.000000 -0.000000
LeftFoot -10.439729 5.190270 -17.985580
LeftToeBase 5.379219 -0.000000 -0.000000
RightUpLeg 13.702728 -8.264791 -12.464951
RightLeg 3.318920 -0.000000 -0.000000
RightFoot -11.752354 0.031249 19.964753
RightToeBase 10.234832 -0.000000 -0.000000
11
root 4.434477 35.870700 -0.712766 -155.227278 -85.713861 148.520033
Spine 11.709928 1.944710 -4.510673
Head -2.203063 9.641899 2.650275
LeftShoulder -5.989977 9.364187 29.848724
LeftArm 11.931848 -36.473331 -35.901765
LeftForeArm 26.020481 -0.000000 2.422325
LeftHand -11.837121 0.000000 -14.447885
LeftHandThumb1 -26.253704 0.000000 33.147579
RightShoulder -23.511217 -39.341679 -11.936011
RightArm 55.543786 48.115907 57.755892
RightForeArm 2.598288 -0.000000 -2.653123
RightHand -2.135226 -0.000000 4.640084
RightHandThumb1 -24.326973 -0.000000 -32.862282
LeftUpLeg 14.198656 15.339330 7.801234
LeftLeg 4.033622 -0.000000 -0.000000
LeftFoot -10.436069 5.193378 -17.971044
LeftToeBase 5.389744 -0.000000 -0.000000
RightUpLeg 13.745651 -8.279605 -12.451462
RightLeg 3.275166 -0.000000 -0.000000
RightFoot -11.733674 0.044514 19.964297
RightToeBase 10.282590 -0.000000 -0.000000
12
root 4.430215 35.870814 -0.717668 -155.442184 -85.713550 148.726728
Spine 11.718295 1.926638 -4.484582
Head -2.144344 9.635430 2.608341
LeftShoulder -5.981001 9.352473 29.836036
LeftArm 11.938861 -36.496897 -35.956610
LeftForeArm 26.047376 -0.000000 2.436024
LeftHand -11.849089 -0.000000 -14.365673
LeftHandThumb1 -26.253704 0.000000 33.147579
RightShoulder -23.498421 -39.333726 -11.969400
RightArm 55.574208 48.146727 57.799167
RightForeArm 2.567837 -0.000000 -2.673036
RightHand -2.109484 -0.000000 4.693211
RightHandThumb1 -24.326973 -0.000000 -32.862282
LeftUpLeg 14.224351 15.345204 7.826368
LeftLeg 4.018653 -0.000000 -0.000000
LeftFoot -10.434906 5.198170 -17.990490
LeftToeBase 5.372892 -0.000000 -0.000000
RightUpLeg 13.790931 -8.282753 -12.436066
RightLeg 3.216130 -0.000000 -0.000000
RightFoot -11.703969 0.052391 19.980034
RightToeBase 10.237114 -0.000000 -0.000000
13
root 4.427369 35.871472 -0.721850 -155.502322 -85.712847 148.784295
Spine 11.719715 1.901016 -4.478436
Head -2.090032 9.626649 2.596201
LeftShoulder -5.975253 9.408545 29.827190
LeftArm 12.004074 -36.550863 -36.029921
LeftForeArm 26.068570 0.000000 2.420516
LeftHand -11.909888 -0.000000 -14.370671
LeftHandThumb1 -26.253704 0.000000 33.147579
RightShoulder -23.473304 -39.315295 -11.980107
RightArm 55.576414 48.179365 57.785120
RightForeArm 2.576189 0.000000 -2.701448
RightHand -2.137688 -0.000000 4.710584
RightHandThumb1 -24.326973 -0.000000 -32.862282
LeftUpLeg 14.228697 15.348447 7.837715
LeftLeg 4.024702 -0.000000 -0.000000
LeftFoot -10.428390 5.203321 -17.972780
LeftToeBase 5.366513 -0.000000 -0.000000
RightUpLeg 13.828567 -8.310646 -12.436237
RightLeg 3.158726 -0.000000 -0.000000
RightFoot -11.669895 0.073802 19.959679
RightToeBase 10.260454 -0.000000 -0.000000
